<svg width="25" height="25" viewBox="0 0 25 25" fill="none" xmlns="http://www.w3.org/2000/svg">
<path fill-rule="evenodd" clip-rule="evenodd" d="M20.8334 1.0415C22.5593 1.0415 23.9584 2.44062 23.9584 4.1665V20.8332C23.9584 22.5591 22.5593 23.9582 20.8334 23.9582H4.16675C2.44086 23.9582 1.04175 22.5591 1.04175 20.8332V4.1665C1.04175 2.44062 2.44086 1.0415 4.16675 1.0415H20.8334ZM20.8334 3.12484C21.4087 3.12484 21.8751 3.59121 21.8751 4.1665V20.8332C21.8751 21.4085 21.4087 21.8748 20.8334 21.8748H15.6251V14.5831H17.7878C18.2361 14.5831 18.6341 14.2962 18.776 13.8708L19.2375 12.4864C19.4061 11.9805 19.0296 11.4581 18.4963 11.4581H15.6251V9.37475C15.6251 8.85392 16.1459 8.33309 16.6667 8.33309H18.7501C19.3254 8.33309 19.7917 7.86671 19.7917 7.29142V6.57685C19.7917 6.24037 19.5768 5.93869 19.2514 5.85283C17.886 5.49249 16.6667 5.49249 16.6667 5.49249C14.0626 5.49249 12.5001 7.29142 12.5001 8.85392V11.4581H10.4167C9.84146 11.4581 9.37508 11.9244 9.37508 12.4997V13.5414C9.37508 14.1167 9.84144 14.5831 10.4167 14.5831H12.5001V21.8748H4.16675C3.59146 21.8748 3.12508 21.4085 3.12508 20.8332V4.1665C3.12508 3.59121 3.59146 3.12484 4.16675 3.12484H20.8334Z" fill="white"/>
</svg>
