<svg width="25" height="25" viewBox="0 0 25 25" fill="none" xmlns="http://www.w3.org/2000/svg">
<path fill-rule="evenodd" clip-rule="evenodd" d="M12.5 18.75C15.9518 18.75 18.75 15.9518 18.75 12.5C18.75 9.04822 15.9518 6.25 12.5 6.25C9.04822 6.25 6.25 9.04822 6.25 12.5C6.25 15.9518 9.04822 18.75 12.5 18.75ZM12.5 16.6667C14.8011 16.6667 16.6667 14.8011 16.6667 12.5C16.6667 10.1988 14.8011 8.33333 12.5 8.33333C10.1988 8.33333 8.33333 10.1988 8.33333 12.5C8.33333 14.8011 10.1988 16.6667 12.5 16.6667Z" fill="white"/>
<path d="M18.7499 5.2085C18.1746 5.2085 17.7083 5.67487 17.7083 6.25016C17.7083 6.82545 18.1746 7.29183 18.7499 7.29183C19.3252 7.29183 19.7916 6.82545 19.7916 6.25016C19.7916 5.67487 19.3252 5.2085 18.7499 5.2085Z" fill="white"/>
<path fill-rule="evenodd" clip-rule="evenodd" d="M1.72296 4.45407C1.04175 5.79101 1.04175 7.54118 1.04175 11.0415V13.9582C1.04175 17.4585 1.04175 19.2087 1.72296 20.5456C2.32216 21.7216 3.27829 22.6778 4.45431 23.2769C5.79126 23.9582 7.54142 23.9582 11.0417 23.9582H13.9584C17.4587 23.9582 19.2089 23.9582 20.5458 23.2769C21.7218 22.6778 22.678 21.7216 23.2772 20.5456C23.9584 19.2087 23.9584 17.4585 23.9584 13.9582V11.0415C23.9584 7.54118 23.9584 5.79101 23.2772 4.45407C22.678 3.27805 21.7218 2.32192 20.5458 1.72271C19.2089 1.0415 17.4587 1.0415 13.9584 1.0415H11.0417C7.54142 1.0415 5.79126 1.0415 4.45431 1.72271C3.27829 2.32192 2.32216 3.27805 1.72296 4.45407ZM13.9584 3.12484H11.0417C9.25721 3.12484 8.04409 3.12646 7.10641 3.20307C6.19304 3.27769 5.72596 3.41295 5.40012 3.57897C4.61611 3.97845 3.9787 4.61587 3.57922 5.39988C3.4132 5.72571 3.27794 6.19279 3.20331 7.10617C3.12671 8.04385 3.12508 9.25696 3.12508 11.0415V13.9582C3.12508 15.7428 3.12671 16.9558 3.20331 17.8935C3.27794 18.8069 3.4132 19.274 3.57922 19.5998C3.9787 20.3838 4.61611 21.0212 5.40012 21.4207C5.72596 21.5867 6.19304 21.722 7.10641 21.7966C8.04409 21.8732 9.25721 21.8748 11.0417 21.8748H13.9584C15.743 21.8748 16.956 21.8732 17.8937 21.7966C18.8072 21.722 19.2742 21.5867 19.6001 21.4207C20.384 21.0212 21.0214 20.3838 21.4209 19.5998C21.587 19.274 21.7223 18.8069 21.7968 17.8935C21.8734 16.9558 21.8751 15.7428 21.8751 13.9582V11.0415C21.8751 9.25696 21.8734 8.04385 21.7968 7.10617C21.7223 6.19279 21.587 5.72571 21.4209 5.39988C21.0214 4.61587 20.384 3.97845 19.6001 3.57897C19.2742 3.41295 18.8072 3.27769 17.8937 3.20307C16.956 3.12646 15.743 3.12484 13.9584 3.12484Z" fill="white"/>
</svg>
