<svg width="25" height="25" viewBox="0 0 25 25" fill="none" xmlns="http://www.w3.org/2000/svg">
<path d="M21.875 7.29167H20.8333C19.7283 7.29167 18.6685 6.85268 17.8871 6.07128C17.1057 5.28988 16.6667 4.23007 16.6667 3.125H12.5V15.1042C12.5 15.5481 12.3865 15.9846 12.1704 16.3723C11.9542 16.76 11.6425 17.086 11.2649 17.3194C10.8873 17.5528 10.4563 17.6857 10.0129 17.7057C9.56944 17.7257 9.12825 17.6319 8.73121 17.4334C8.33418 17.2349 7.99448 16.9382 7.74437 16.5714C7.49427 16.2047 7.34205 15.7801 7.30219 15.338C7.26232 14.8959 7.33613 14.451 7.5166 14.0454C7.69707 13.6399 7.97821 13.2872 8.33333 13.0208V8.52083C7.0954 8.81444 5.96523 9.45089 5.07237 10.3572C4.17951 11.2636 3.56007 12.4032 3.28507 13.6454C3.01006 14.8876 3.09061 16.1821 3.51748 17.3806C3.94435 18.5792 4.70027 19.6332 5.6986 20.4219C6.69694 21.2105 7.89728 21.702 9.16206 21.8399C10.4268 21.9777 11.7049 21.7565 12.8497 21.2014C13.9945 20.6464 14.9598 19.78 15.6349 18.7016C16.31 17.6232 16.6676 16.3764 16.6667 15.1042V10.3333C17.9327 11.0677 19.3698 11.4557 20.8333 11.4583H21.875V7.29167Z" stroke="white" stroke-width="2.16667" stroke-linecap="round" stroke-linejoin="round"/>
</svg>
