<svg width="25" height="25" viewBox="0 0 25 25" fill="none" xmlns="http://www.w3.org/2000/svg">
<path d="M6.26459 8.33972C6.38362 7.39833 7.60705 6.1189 8.578 6.26086L8.57645 6.25931C9.52137 6.43888 10.2694 8.06522 10.6911 8.79651C10.99 9.3271 10.7959 9.86469 10.5172 10.0915C10.1411 10.3946 9.55312 10.8128 9.67649 11.2327C9.89584 11.9792 12.5 14.5833 13.7808 15.3236C14.2656 15.6039 14.6172 14.8648 14.9174 14.4861C15.1355 14.1949 15.6735 14.0208 16.2029 14.3083C16.9935 14.7688 17.7383 15.3039 18.4271 15.9062C18.771 16.1938 18.8518 16.6186 18.6134 17.0677C18.1936 17.8586 16.9795 18.9017 16.0981 18.6897C14.5588 18.3196 8.33334 15.9062 6.33368 8.91459C6.22122 8.58383 6.24953 8.45879 6.26459 8.33972Z" fill="white"/>
<path fill-rule="evenodd" clip-rule="evenodd" d="M12.5001 23.9582C11.2255 23.9582 10.5203 23.8214 9.37508 23.4373L7.18178 24.534C5.79656 25.2266 4.16675 24.2193 4.16675 22.6706V20.3123C1.92357 18.2207 1.04175 15.8089 1.04175 12.4998C1.04175 6.17158 6.17182 1.0415 12.5001 1.0415C18.8283 1.0415 23.9584 6.17158 23.9584 12.4998C23.9584 18.8281 18.8283 23.9582 12.5001 23.9582ZM6.25008 19.4064L5.58753 18.7886C3.84474 17.1636 3.12508 15.3468 3.12508 12.4998C3.12508 7.32217 7.32241 3.12484 12.5001 3.12484C17.6778 3.12484 21.8751 7.32217 21.8751 12.4998C21.8751 17.6775 17.6778 21.8748 12.5001 21.8748C11.4733 21.8748 10.9917 21.7821 10.0375 21.4621L9.21724 21.187L6.25008 22.6706V19.4064Z" fill="white"/>
</svg>
